# xmcd
#
# Track frame offsets:
#	150
#	15961
#	33667
#	52767
#	71517
#	91927
#	109167
#	125901
#	144010
#	164787
#	180136
#	198893
#	215850
#	232545
#
# Disc length: 3349 seconds
#
# Revision: 5
# Processed by: cddbd v1.5.2PL0 Copyright (c) Steve Scherf et al.
# Submitted via: audiograbber 1.83.01
#
DISCID=b20d130e
DTITLE=Golden Earring - Complete Studio Recordings [CD 25) - Tits 'n Ass [remas
DTITLE=tered 2017]
DYEAR=2012
DGENRE=Rock
TTITLE0=Identical
TTITLE1=Little Time Bomb
TTITLE2=Cool As It Gets
TTITLE3=Acrobats And Clowns
TTITLE4=What Do I Know About Love
TTITLE5=Still Got The Keys To My First Cadillac
TTITLE6=Dope Runner
TTITLE7=This Love
TTITLE8=Stratosphere
TTITLE9=Over The Cliff Into The Deep Deep Blue
TTITLE10=Flowers In The Mud
TTITLE11=Justin Time
TTITLE12=Avenue Of Broken Dreams
TTITLE13=Wanted By Women
EXTD=
EXTT0=
EXTT1=
EXTT2=
EXTT3=
EXTT4=
EXTT5=
EXTT6=
EXTT7=
EXTT8=
EXTT9=
EXTT10=
EXTT11=
EXTT12=
EXTT13=
PLAYORDER=
